<svg width="36" height="36" viewBox="0 0 36 36" fill="none" xmlns="http://www.w3.org/2000/svg">
<path d="M18.3472 5.32173C18.0563 3.94285 16.8013 2.98358 15.3944 3.06471C15.0373 3.08531 14.6853 3.15956 14.3503 3.28498C13.0305 3.77911 12.27 5.16361 12.5609 6.54251L12.9723 8.49245C12.2403 8.8791 11.5637 9.34548 10.9513 9.8779L9.28089 8.78951C8.10017 8.02019 6.53445 8.2293 5.59699 9.2815C5.35905 9.54857 5.16268 9.84995 5.01449 10.1755C4.43066 11.4581 4.87188 12.9749 6.05262 13.7442L7.72304 14.8326C7.48337 15.6078 7.33008 16.4152 7.2721 17.241L5.32215 17.6524C3.94326 17.9433 2.98398 19.1983 3.06512 20.6052C3.08571 20.9623 3.15997 21.3143 3.28539 21.6493C3.77952 22.9691 5.164 23.7296 6.54289 23.4387L8.49285 23.0273C8.87949 23.7593 9.34587 24.4359 9.87829 25.0483L8.78991 26.7187C8.02059 27.8994 8.2297 29.4651 9.28191 30.4026C9.54898 30.6406 9.85036 30.8369 10.1759 30.9851C11.4585 31.5689 12.9753 31.1277 13.7446 29.947L14.833 28.2766C15.6082 28.5162 16.4156 28.6695 17.2414 28.7275L17.6528 30.6774C17.9437 32.0563 19.1987 33.0156 20.6056 32.9345C20.9627 32.9139 21.3147 32.8396 21.6497 32.7142C22.9695 32.2201 23.73 30.8356 23.4391 29.4567L23.0277 27.5068C23.7597 27.1201 24.4363 26.6537 25.0487 26.1213L26.7191 27.2097C27.8998 27.979 29.4655 27.7699 30.403 26.7177C30.641 26.4506 30.8373 26.1493 30.9855 25.8237C31.5693 24.5411 31.1281 23.0243 29.9474 22.255L28.277 21.1666C28.5166 20.3914 28.6699 19.584 28.7279 18.7582L30.6779 18.3468C32.0568 18.0559 33.016 16.8009 32.9349 15.394C32.9143 15.0369 32.84 14.6849 32.7146 14.3499C32.2205 13.0301 30.836 12.2696 29.4571 12.5605L27.5072 12.9719C27.1205 12.2399 26.6541 11.5633 26.1217 10.9509L27.2101 9.28049C27.9794 8.09976 27.7703 6.53405 26.7181 5.59659C26.451 5.35864 26.1497 5.16227 25.8241 5.01409C24.5415 4.43026 23.0247 4.87148 22.2554 6.05221L21.167 7.72263C20.3918 7.48296 19.5844 7.32967 18.7586 7.27169L18.3472 5.32173Z" stroke="#FC4B37" stroke-width="3" stroke-linecap="round" stroke-linejoin="round"/>
<path d="M13.8711 18.8701C13.39 16.5898 14.8486 14.3512 17.1289 13.8701C19.4092 13.389 21.6478 14.8476 22.1289 17.1279C22.61 19.4083 21.1514 21.6468 18.8711 22.1279C16.5908 22.609 14.3522 21.1504 13.8711 18.8701Z" stroke="#FC4B37" stroke-width="3"/>
</svg>
