<svg width="34" height="36" viewBox="0 0 34 36" fill="none" xmlns="http://www.w3.org/2000/svg">
<path d="M10.1246 2V6.46888M24.0976 2V6.46888M11.8712 23.8975H17.1111M11.8712 18.5349H22.351M2.59249 23.7751C1.8025 20.3284 1.8025 16.7413 2.59249 13.2946C3.68636 8.52204 7.32752 4.79557 11.9908 3.67608C15.3587 2.86759 18.8636 2.86759 22.2314 3.67608C26.8947 4.79557 30.5359 8.52205 31.6297 13.2946C32.4197 16.7413 32.4197 20.3284 31.6297 23.7751C30.5359 28.5477 26.8947 32.2741 22.2314 33.3936C18.8636 34.2021 15.3587 34.2021 11.9909 33.3936C7.32752 32.2741 3.68636 28.5477 2.59249 23.7751Z" stroke="#FC4B37" stroke-width="3" stroke-linecap="round"/>
</svg>
