<svg width="38" height="38" viewBox="0 0 38 38" fill="none" xmlns="http://www.w3.org/2000/svg">
<path d="M20.5245 1.99335C22.3431 2.33445 23.6276 3.96999 23.5279 5.81755L23.3864 8.4418C26.5674 9.76284 28.999 12.4716 29.9702 15.7762L32.5945 15.9177C34.442 16.0173 35.93 17.4703 36.0735 19.3149C36.105 19.7187 36.0831 20.1248 36.0084 20.5228C35.6673 22.3413 34.0318 23.6258 32.1842 23.5262L29.5599 23.3847C28.2389 26.5657 25.5302 28.9972 22.2256 29.9685L22.0841 32.5927C21.9844 34.4403 20.5315 35.9282 18.6868 36.0718C18.2831 36.1032 17.877 36.0813 17.479 36.0067C15.6604 35.6656 14.3759 34.03 14.4756 32.1824L14.6171 29.5582C11.4361 28.2372 9.00456 25.5284 8.03326 22.2238L5.40901 22.0823C3.56144 21.9827 2.07353 20.5298 1.92996 18.6851C1.89854 18.2814 1.92044 17.8752 1.9951 17.4772C2.3362 15.6587 3.97175 14.3742 5.81933 14.4738L8.44356 14.6153C9.76459 11.4343 12.4733 9.0028 15.7779 8.03151L15.9194 5.40729C16.0191 3.55971 17.472 2.07178 19.3167 1.92821C19.7204 1.89679 20.1265 1.91869 20.5245 1.99335Z" stroke="#FC4B37" stroke-width="3" stroke-linecap="round" stroke-linejoin="round"/>
<path d="M14.2598 18.7461C14.4011 16.126 16.6397 14.1165 19.2598 14.2578C21.8799 14.3991 23.8894 16.6377 23.7481 19.2578C23.6068 21.8779 21.3683 23.8874 18.7481 23.7461C16.128 23.6048 14.1185 21.3663 14.2598 18.7461Z" stroke="#FC4B37" stroke-width="3"/>
</svg>
